<svg xmlns="http://www.w3.org/2000/svg" width="172" height="172" viewBox="0 0 172 172"><g id="f1cd4966-5820-4772-bbc7-d39bee47a7ef" data-name="Layer 2"><path id="a8d77868-ecbf-4407-a26d-07f1ba5aadc8" data-name="Border" d="M129.94,182H62.06C39.43,182,22,182,16,176s-6-23.43-6-46.06V62.07C10,39.43,10,22,16,16s23.43-6,46.06-6h67.88C152.57,10,170,10,176,16s6,23.43,6,46.07V130c0,22.61,0,40.06-6,46S152.57,182,129.94,182Z" transform="translate(-10 -10)" style="fill:#fff"/><polygon points="134 6 134 6 24.01 6 24.01 130 38 130 38 39.76 37.97 39.76 37.97 22.02 38 22.02 38 20.02 162 20.02 134 6"/><polygon points="152 38.02 152 162 166 134 166 24.02 41.98 24.02 41.98 38.02 132.25 38.02 133.98 38.02 148 38.02 150 38.02 152 38.02"/><polygon points="133.98 42.03 133.98 132.25 133.98 134 133.98 148 134 148 134 152 10 152 37.97 166 148 166 148 42.03 133.98 42.03"/><polygon points="39.75 134 39.75 134 22.01 134 22.01 134 20.01 134 20.01 10 6 38 6 148 129.97 148 129.97 134 39.75 134"/></g><g id="a35276f5-c1ba-4d11-ac16-6be2b8c6e17f" data-name="Layer 3"><path d="M76.34,100.85a1.89,1.89,0,0,1-1.37-.5A1.82,1.82,0,0,1,74.46,99a1.88,1.88,0,1,1,3.76,0,1.82,1.82,0,0,1-.51,1.36A1.89,1.89,0,0,1,76.34,100.85Z" transform="translate(-10 -10)"/><path d="M88.4,100.85a5.42,5.42,0,0,1-2.45-.53,3.88,3.88,0,0,1-1.63-1.5,4.36,4.36,0,0,1-.58-2.29V93.77a4.36,4.36,0,0,1,.58-2.29A3.88,3.88,0,0,1,86,90a5.42,5.42,0,0,1,2.45-.53,4.92,4.92,0,0,1,3.32,1.07A3.8,3.8,0,0,1,93,93.43H90.58a1.78,1.78,0,0,0-.65-1.33,2.39,2.39,0,0,0-1.53-.47,2.19,2.19,0,0,0-1.58.55,2.05,2.05,0,0,0-.58,1.57v2.78a2.08,2.08,0,0,0,.58,1.58,2.19,2.19,0,0,0,1.58.56,2.4,2.4,0,0,0,1.54-.47,1.77,1.77,0,0,0,.64-1.33H93a3.8,3.8,0,0,1-1.3,2.91A4.92,4.92,0,0,1,88.4,100.85Z" transform="translate(-10 -10)"/><path d="M95.88,104.25V89.65h2.44v2h0A3,3,0,0,1,99.43,90a3.11,3.11,0,0,1,1.91-.57A3.29,3.29,0,0,1,104,90.59a4.5,4.5,0,0,1,1,3.06v3a4.54,4.54,0,0,1-1,3.08,3.29,3.29,0,0,1-2.61,1.14,3.13,3.13,0,0,1-1.9-.57,2.94,2.94,0,0,1-1.08-1.61h0l.06,2.5v3.08Zm4.54-5.56a2,2,0,0,0,1.49-.56,2.25,2.25,0,0,0,.53-1.6V93.77a2.25,2.25,0,0,0-.53-1.6,2,2,0,0,0-1.49-.56,1.94,1.94,0,0,0-1.5.58,2.32,2.32,0,0,0-.54,1.64v2.64a2.32,2.32,0,0,0,.54,1.64A1.94,1.94,0,0,0,100.42,98.69Z" transform="translate(-10 -10)"/><path d="M107.88,104.25V89.65h2.44v2h0A3,3,0,0,1,111.43,90a3.11,3.11,0,0,1,1.91-.57A3.29,3.29,0,0,1,116,90.59a4.5,4.5,0,0,1,1,3.06v3a4.54,4.54,0,0,1-1,3.08,3.29,3.29,0,0,1-2.61,1.14,3.13,3.13,0,0,1-1.9-.57,2.94,2.94,0,0,1-1.08-1.61h0l.06,2.5v3.08Zm4.54-5.56a2,2,0,0,0,1.49-.56,2.25,2.25,0,0,0,.53-1.6V93.77a2.25,2.25,0,0,0-.53-1.6,2,2,0,0,0-1.49-.56,1.94,1.94,0,0,0-1.5.58,2.32,2.32,0,0,0-.54,1.64v2.64a2.32,2.32,0,0,0,.54,1.64A1.94,1.94,0,0,0,112.42,98.69Z" transform="translate(-10 -10)"/></g></svg>